<svg version="1.1" id="Layer_1" xmlns="http://www.w3.org/2000/svg" xmlns:xlink="http://www.w3.org/1999/xlink" x="0px" y="0px"
	 width="100%" viewBox="0 0 1355 1355" enable-background="new 0 0 1355 1355" xml:space="preserve">
<path fill="#000000" opacity="1.000000" stroke="none" 
	d="
M1356.000000,519.000000 
	C1356.000000,798.333313 1356.000000,1077.166626 1356.000000,1356.000000 
	C904.333435,1356.000000 452.666931,1356.000000 1.000294,1356.000000 
	C1.000196,904.333557 1.000196,452.667084 1.000098,1.000476 
	C452.666382,1.000317 904.332764,1.000317 1355.999512,1.000159 
	C1356.000000,173.500000 1356.000000,346.000000 1356.000000,519.000000 
M109.167160,1029.402954 
	C159.341980,1002.653076 209.539246,975.945068 259.650696,949.076904 
	C263.834198,946.833862 267.155609,946.509094 271.613403,948.682129 
	C325.721283,975.058472 379.946716,1001.193665 434.130127,1027.415283 
	C491.592499,1055.223877 549.041565,1083.059937 606.504883,1110.866333 
	C607.758850,1111.473145 609.115417,1111.867920 610.424133,1112.361694 
	C610.375061,1111.032959 609.939880,1110.391235 609.357605,1109.938721 
	C586.357056,1092.058472 563.387939,1074.137451 540.322083,1056.341797 
	C484.705963,1013.433533 429.051697,970.574585 373.396057,927.717590 
	C352.168274,911.371277 330.863708,895.124451 309.702911,878.692200 
	C308.063599,877.419250 306.539398,875.152039 306.224823,873.148621 
	C302.635834,850.291992 299.312286,827.393738 295.879120,804.512512 
	C290.271942,767.141907 284.637787,729.775330 279.008240,692.408081 
	C278.664093,690.123901 278.260681,687.848633 277.729218,684.625427 
	C520.155945,785.389648 761.468872,885.690979 1003.267517,986.194214 
	C944.503357,1034.667725 886.243774,1082.724976 827.795593,1130.937744 
	C892.907471,1195.465698 957.719116,1259.695923 1022.530701,1323.926147 
	C1022.819702,1321.679688 1022.321350,1319.977905 1021.579834,1318.389771 
	C992.403931,1255.897583 963.227356,1193.405640 933.941223,1130.965088 
	C932.613892,1128.135132 932.954773,1126.602905 935.321228,1124.668457 
	C957.881775,1106.226074 980.339111,1087.657593 1002.857422,1069.163330 
	C1036.696899,1041.370850 1070.567871,1013.616638 1104.410156,985.827393 
	C1111.003296,980.413635 1117.526611,974.914978 1124.313843,969.262634 
	C1123.167969,968.748718 1122.423462,968.393005 1121.662598,968.076599 
	C1076.558594,949.318909 1031.461426,930.544922 986.345459,911.816223 
	C952.419006,897.732666 918.438721,883.778625 884.535217,869.640198 
	C829.148621,846.543030 773.835388,823.270020 718.433716,800.209167 
	C675.316162,782.261536 632.095398,764.562317 588.950256,746.680908 
	C553.175171,731.854004 517.453857,716.897339 481.689453,702.044678 
	C449.007294,688.472046 416.308441,674.939392 383.586060,661.464233 
	C380.799835,660.316833 378.913788,658.986572 378.244659,655.720154 
	C367.663513,604.067871 357.138977,552.402466 346.155457,500.835175 
	C343.912811,490.305939 344.172241,480.537109 346.899017,470.065826 
	C357.711304,428.544342 367.796051,386.833099 378.099030,345.179474 
	C389.756866,298.047974 401.382629,250.908539 412.942383,203.752930 
	C413.868256,199.975998 415.178925,197.405991 419.408325,196.050583 
	C489.816528,173.486649 560.155090,150.705490 630.529297,128.035278 
	C694.129395,107.547295 757.755249,87.139236 821.359131,66.663200 
	C822.862671,66.179161 824.241150,65.306747 825.677917,64.615486 
	C823.414124,64.045471 821.536926,64.436493 819.655457,64.805450 
	C772.644897,74.024284 725.632202,83.231819 678.623535,92.460236 
	C631.780823,101.656052 584.933105,110.826675 538.105042,120.096703 
	C509.717743,125.716225 481.363647,131.503494 452.186127,137.158981 
	C430.707825,141.342178 409.274475,145.782883 387.722443,149.543686 
	C381.657043,150.602112 378.104340,152.891144 376.912109,159.639587 
	C375.688721,162.726700 374.463043,165.812912 373.242340,168.901077 
	C343.079071,245.207596 312.937988,321.522919 282.646301,397.778381 
	C281.763885,399.999786 279.646759,402.322052 277.505493,403.360870 
	C255.229294,414.167999 232.831024,424.723511 210.464600,435.344635 
	C180.329559,449.654755 150.189362,463.954132 120.060623,478.277496 
	C115.998093,480.208832 111.989273,482.253113 107.955589,484.245117 
	C108.056267,484.565521 108.156944,484.885895 108.257622,485.206299 
	C166.681183,485.206299 225.104736,485.206299 283.369141,485.206299 
	C296.994720,535.782654 310.509918,585.949219 324.181763,636.697266 
	C281.949219,619.205261 240.289536,601.950562 198.598862,584.683044 
	C198.434387,585.229553 198.224945,585.552185 198.267395,585.837280 
	C204.469254,627.490479 210.679016,669.142456 216.911453,710.791077 
	C223.835220,757.059570 230.839233,803.316223 237.567444,849.613037 
	C237.963135,852.335815 236.997406,855.958618 235.342209,858.174133 
	C196.605698,910.023743 157.673782,961.727356 118.821037,1013.490234 
	C115.041428,1018.525757 111.542702,1023.772095 107.371254,1029.091919 
	C107.353287,1029.348267 107.335320,1029.604736 107.317352,1029.861084 
	C107.711998,1029.789795 108.106651,1029.718506 109.167160,1029.402954 
M957.600708,219.902420 
	C976.162170,282.937927 994.723633,345.973419 1013.384644,409.347015 
	C844.894165,434.417114 677.174683,459.372498 509.455200,484.327881 
	C509.483368,484.476868 509.511536,484.625854 509.539734,484.774841 
	C760.366150,484.774841 1011.192566,484.774841 1262.019043,484.774841 
	C1249.760254,478.215027 1237.321777,472.419708 1224.933350,466.519073 
	C1181.436890,445.801544 1137.997681,424.963287 1094.412842,404.433746 
	C1089.877441,402.297455 1086.962280,399.548187 1084.734131,395.187775 
	C1065.687134,357.912292 1046.473633,320.721893 1027.325195,283.498230 
	C989.472656,209.914795 951.631714,136.325378 913.769836,62.746750 
	C913.035645,61.319958 912.104919,59.994343 911.265869,58.621521 
	C911.257874,61.938011 912.143127,64.687332 912.945312,67.460701 
	C916.546143,79.910164 920.074829,92.380653 923.717957,104.817650 
	C934.884460,142.938385 946.091553,181.047226 957.600708,219.902420 
M966.782043,805.091309 
	C963.780090,835.668457 960.778198,866.245605 957.776245,896.822693 
	C958.199768,896.919678 958.623230,897.016663 959.046692,897.113647 
	C961.283508,890.606079 963.467468,884.079773 965.765503,877.593933 
	C982.253052,831.058899 998.784729,784.539551 1015.219788,737.986023 
	C1016.296387,734.936523 1018.125549,733.678162 1021.197876,732.929565 
	C1054.967407,724.701538 1088.699341,716.319336 1122.718628,707.910522 
	C1089.369995,634.448975 1056.206299,561.394653 1023.042603,488.340302 
	C1022.658691,488.479034 1022.274780,488.617798 1021.890869,488.756531 
	C1036.198853,552.657837 1050.506714,616.559143 1064.874268,680.726929 
	C1035.748657,686.795959 1006.625061,692.864502 977.603516,698.911865 
	C975.726929,716.698059 973.846313,734.077026 972.071838,751.466797 
	C970.279480,769.031250 968.592285,786.606384 966.782043,805.091309 
z"/>
<path fill="#EEEFE2" opacity="1.000000" stroke="none" 
	d="
M452.994629,137.215408 
	C481.363647,131.503494 509.717743,125.716225 538.105042,120.096703 
	C584.933105,110.826675 631.780823,101.656052 678.623535,92.460236 
	C725.632202,83.231819 772.644897,74.024284 819.655457,64.805450 
	C821.536926,64.436493 823.414124,64.045471 825.677917,64.615486 
	C824.241150,65.306747 822.862671,66.179161 821.359131,66.663200 
	C757.755249,87.139236 694.129395,107.547295 630.529297,128.035278 
	C560.155090,150.705490 489.816528,173.486649 419.408325,196.050583 
	C415.178925,197.405991 413.868256,199.975998 412.942383,203.752930 
	C401.382629,250.908539 389.756866,298.047974 378.099030,345.179474 
	C367.796051,386.833099 357.711304,428.544342 346.899017,470.065826 
	C344.172241,480.537109 343.912811,490.305939 346.155457,500.835175 
	C357.138977,552.402466 367.663513,604.067871 378.244659,655.720154 
	C378.913788,658.986572 380.799835,660.316833 383.586060,661.464233 
	C416.308441,674.939392 449.007294,688.472046 481.689453,702.044678 
	C517.453857,716.897339 553.175171,731.854004 588.950256,746.680908 
	C632.095398,764.562317 675.316162,782.261536 718.433716,800.209167 
	C773.835388,823.270020 829.148621,846.543030 884.535217,869.640198 
	C918.438721,883.778625 952.419006,897.732666 986.345459,911.816223 
	C1031.461426,930.544922 1076.558594,949.318909 1121.662598,968.076599 
	C1122.423462,968.393005 1123.167969,968.748718 1124.313843,969.262634 
	C1117.526611,974.914978 1111.003296,980.413635 1104.410156,985.827393 
	C1070.567871,1013.616638 1036.696899,1041.370850 1002.857422,1069.163330 
	C980.339111,1087.657593 957.881775,1106.226074 935.321228,1124.668457 
	C932.954773,1126.602905 932.613892,1128.135132 933.941223,1130.965088 
	C963.227356,1193.405640 992.403931,1255.897583 1021.579834,1318.389771 
	C1022.321350,1319.977905 1022.819702,1321.679688 1022.530701,1323.926147 
	C957.719116,1259.695923 892.907471,1195.465698 827.795593,1130.937744 
	C886.243774,1082.724976 944.503357,1034.667725 1003.267517,986.194214 
	C761.468872,885.690979 520.155945,785.389648 277.729218,684.625427 
	C278.260681,687.848633 278.664093,690.123901 279.008240,692.408081 
	C284.637787,729.775330 290.271942,767.141907 295.879120,804.512512 
	C299.312286,827.393738 302.635834,850.291992 306.224823,873.148621 
	C306.539398,875.152039 308.063599,877.419250 309.702911,878.692200 
	C330.863708,895.124451 352.168274,911.371277 373.396057,927.717590 
	C429.051697,970.574585 484.705963,1013.433533 540.322083,1056.341797 
	C563.387939,1074.137451 586.357056,1092.058472 609.357605,1109.938721 
	C609.939880,1110.391235 610.375061,1111.032959 610.424133,1112.361694 
	C609.115417,1111.867920 607.758850,1111.473145 606.504883,1110.866333 
	C549.041565,1083.059937 491.592499,1055.223877 434.130127,1027.415283 
	C379.946716,1001.193665 325.721283,975.058472 271.613403,948.682129 
	C267.155609,946.509094 263.834198,946.833862 259.650696,949.076904 
	C209.539246,975.945068 159.341980,1002.653076 108.698273,1029.334595 
	C108.229378,1029.266235 107.913589,1028.920532 107.913589,1028.920532 
	C111.542702,1023.772095 115.041428,1018.525757 118.821037,1013.490234 
	C157.673782,961.727356 196.605698,910.023743 235.342209,858.174133 
	C236.997406,855.958618 237.963135,852.335815 237.567444,849.613037 
	C230.839233,803.316223 223.835220,757.059570 216.911453,710.791077 
	C210.679016,669.142456 204.469254,627.490479 198.267395,585.837280 
	C198.224945,585.552185 198.434387,585.229553 198.598862,584.683044 
	C240.289536,601.950562 281.949219,619.205261 324.181763,636.697266 
	C310.509918,585.949219 296.994720,535.782654 283.369141,485.206299 
	C225.104736,485.206299 166.681183,485.206299 108.257622,485.206299 
	C108.156944,484.885895 108.056267,484.565521 107.955589,484.245117 
	C111.989273,482.253113 115.998093,480.208832 120.060623,478.277496 
	C150.189362,463.954132 180.329559,449.654755 210.464600,435.344635 
	C232.831024,424.723511 255.229294,414.167999 277.505493,403.360870 
	C279.646759,402.322052 281.763885,399.999786 282.646301,397.778381 
	C312.937988,321.522919 343.079071,245.207596 373.242340,168.901077 
	C374.463043,165.812912 375.688721,162.726700 377.461761,159.295624 
	C381.928741,157.659576 385.481720,154.062332 390.065704,158.407578 
	C391.220978,159.502655 394.895447,157.940109 398.415955,157.462769 
	C396.554504,156.320450 395.647278,155.763702 394.257324,154.910736 
	C397.613831,153.558868 398.922424,154.175766 400.223450,157.020096 
	C400.975800,158.664917 403.960724,160.396820 405.710449,160.185120 
	C407.711731,159.942978 409.424713,157.844299 408.075500,154.772018 
	C407.456116,153.361694 408.398926,151.265350 408.680511,149.120819 
	C413.176727,149.492371 417.118896,149.818146 419.140594,149.985214 
	C424.349487,147.961212 428.136780,146.406021 431.989380,145.034149 
	C433.511566,144.492111 435.271698,144.585953 436.757355,143.981720 
	C438.681915,143.198959 440.360809,141.809525 442.287781,141.035721 
	C445.801514,139.624741 449.419922,138.474457 452.994629,137.215408 
M414.513275,150.435226 
	C414.513275,150.435226 414.559906,150.521301 414.513275,150.435226 
z"/>
<path fill="#EEEFE3" opacity="1.000000" stroke="none" 
	d="
M957.441772,219.531555 
	C946.091553,181.047226 934.884460,142.938385 923.717957,104.817650 
	C920.074829,92.380653 916.546143,79.910164 912.945312,67.460701 
	C912.143127,64.687332 911.257874,61.938011 911.265869,58.621521 
	C912.104919,59.994343 913.035645,61.319958 913.769836,62.746750 
	C951.631714,136.325378 989.472656,209.914795 1027.325195,283.498230 
	C1046.473633,320.721893 1065.687134,357.912292 1084.734131,395.187775 
	C1086.962280,399.548187 1089.877441,402.297455 1094.412842,404.433746 
	C1137.997681,424.963287 1181.436890,445.801544 1224.933350,466.519073 
	C1237.321777,472.419708 1249.760254,478.215027 1262.019043,484.774841 
	C1011.192566,484.774841 760.366150,484.774841 509.539734,484.774841 
	C509.511536,484.625854 509.483368,484.476868 509.455200,484.327881 
	C677.174683,459.372498 844.894165,434.417114 1013.384644,409.347015 
	C994.723633,345.973419 976.162170,282.937927 957.441772,219.531555 
z"/>
<path fill="#EEEFE4" opacity="1.000000" stroke="none" 
	d="
M966.820557,804.634094 
	C968.592285,786.606384 970.279480,769.031250 972.071838,751.466797 
	C973.846313,734.077026 975.726929,716.698059 977.603516,698.911865 
	C1006.625061,692.864502 1035.748657,686.795959 1064.874268,680.726929 
	C1050.506714,616.559143 1036.198853,552.657837 1021.890869,488.756531 
	C1022.274780,488.617798 1022.658691,488.479034 1023.042603,488.340302 
	C1056.206299,561.394653 1089.369995,634.448975 1122.718628,707.910522 
	C1088.699341,716.319336 1054.967407,724.701538 1021.197876,732.929565 
	C1018.125549,733.678162 1016.296387,734.936523 1015.219788,737.986023 
	C998.784729,784.539551 982.253052,831.058899 965.765503,877.593933 
	C963.467468,884.079773 961.283508,890.606079 959.046692,897.113647 
	C958.623230,897.016663 958.199768,896.919678 957.776245,896.822693 
	C960.778198,866.245605 963.780090,835.668457 966.820557,804.634094 
z"/>
<path fill="#F2F3EC" opacity="1.000000" stroke="none" 
	d="
M452.590393,137.187195 
	C449.419922,138.474457 445.801514,139.624741 442.287781,141.035721 
	C440.360809,141.809525 438.681915,143.198959 436.757355,143.981720 
	C435.271698,144.585953 433.511566,144.492111 431.989380,145.034149 
	C428.136780,146.406021 424.349487,147.961212 419.140594,149.985214 
	C417.118896,149.818146 413.176727,149.492371 408.680511,149.120819 
	C408.398926,151.265350 407.456116,153.361694 408.075500,154.772018 
	C409.424713,157.844299 407.711731,159.942978 405.710449,160.185120 
	C403.960724,160.396820 400.975800,158.664917 400.223450,157.020096 
	C398.922424,154.175766 397.613831,153.558868 394.257324,154.910736 
	C395.647278,155.763702 396.554504,156.320450 398.415955,157.462769 
	C394.895447,157.940109 391.220978,159.502655 390.065704,158.407578 
	C385.481720,154.062332 381.928741,157.659576 377.646942,158.972809 
	C378.104340,152.891144 381.657043,150.602112 387.722443,149.543686 
	C409.274475,145.782883 430.707825,141.342178 452.590393,137.187195 
M402.637268,150.343185 
	C402.044464,150.682831 401.451660,151.022491 400.858856,151.362152 
	C401.119476,151.652725 401.380127,151.943314 401.640747,152.233902 
	C402.158386,151.631805 402.676025,151.029724 402.637268,150.343185 
M391.889587,155.217194 
	C391.425690,155.463455 390.961823,155.709717 390.497925,155.955963 
	C390.666412,156.165726 390.965820,156.569290 390.984192,156.556870 
	C391.424957,156.259155 391.835602,155.916870 391.889587,155.217194 
z"/>
<path fill="#EEEFE2" opacity="1.000000" stroke="none" 
	d="
M108.365341,1029.456787 
	C108.106651,1029.718506 107.711998,1029.789795 107.317352,1029.861084 
	C107.335320,1029.604736 107.353287,1029.348267 107.642426,1029.006226 
	C107.913589,1028.920532 108.229378,1029.266235 108.365341,1029.456787 
z"/>
<path fill="#F2F3EC" opacity="1.000000" stroke="none" 
	d="
M414.536591,150.478271 
	C414.559906,150.521301 414.513275,150.435226 414.536591,150.478271 
z"/>
<path fill="#EEEFE2" opacity="1.000000" stroke="none" 
	d="
M402.915466,150.385406 
	C402.676025,151.029724 402.158386,151.631805 401.640747,152.233902 
	C401.380127,151.943314 401.119476,151.652725 400.858856,151.362152 
	C401.451660,151.022491 402.044464,150.682831 402.915466,150.385406 
z"/>
<path fill="#EEEFE2" opacity="1.000000" stroke="none" 
	d="
M392.070648,155.399933 
	C391.835602,155.916870 391.424957,156.259155 390.984192,156.556870 
	C390.965820,156.569290 390.666412,156.165726 390.497925,155.955963 
	C390.961823,155.709717 391.425690,155.463455 392.070648,155.399933 
z"/>
</svg>